<svg xmlns="http://www.w3.org/2000/svg"  viewBox="0 0 100 100" width="100px" height="100px"><circle cx="78" cy="14" r="1" fill="#f1bc19"/><circle cx="50" cy="50" r="38" fill="#f9dbd2"/><circle cx="84" cy="16" r="4" fill="#f1bc19"/><circle cx="14" cy="26" r="2" fill="#ee3e54"/><circle cx="78" cy="77" r="2" fill="#fbcd59"/><circle cx="17" cy="78" r="4" fill="#fbcd59"/><circle cx="24" cy="83" r="2" fill="#ee3e54"/><circle cx="66.483" cy="78.517" r="2.483" fill="#fff"/><circle cx="16" cy="48" r="1" fill="#fff"/><circle cx="86" cy="31" r="1" fill="#f1bc19"/><circle cx="80" cy="66" r="2" fill="#fff"/><g><circle cx="50" cy="50" r="24.25" fill="#edd773"/><path fill="#472b29" d="M50,74.95c-13.758,0-24.95-11.192-24.95-24.95S36.242,25.05,50,25.05S74.95,36.242,74.95,50 S63.758,74.95,50,74.95z M50,26.45c-12.985,0-23.55,10.564-23.55,23.55S37.015,73.55,50,73.55S73.55,62.985,73.55,50 S62.985,26.45,50,26.45z"/></g><g><ellipse cx="49.938" cy="50.125" fill="#eab436" rx="20.438" ry="20.375"/></g><g><path fill="#472b29" d="M69.424,44.75c-0.214,0-0.412-0.138-0.478-0.353c-0.089-0.288-0.184-0.572-0.284-0.854 c-0.39-1.089-0.885-2.155-1.47-3.169c-0.139-0.239-0.057-0.545,0.183-0.683c0.239-0.14,0.543-0.057,0.683,0.183 c0.616,1.065,1.136,2.187,1.546,3.331c0.106,0.297,0.205,0.595,0.298,0.896c0.082,0.265-0.066,0.544-0.33,0.625 C69.522,44.743,69.473,44.75,69.424,44.75z"/></g><g><path fill="#472b29" d="M50,70.875c-11.511,0-20.875-9.337-20.875-20.813S38.489,29.25,50,29.25 c5.975,0,11.674,2.56,15.636,7.023c0.3,0.337,0.588,0.685,0.865,1.041c0.17,0.218,0.131,0.531-0.088,0.701 c-0.217,0.169-0.531,0.131-0.701-0.088c-0.264-0.339-0.538-0.669-0.823-0.99C61.115,32.688,55.689,30.25,50,30.25 c-10.959,0-19.875,8.888-19.875,19.813S39.041,69.875,50,69.875s19.875-8.888,19.875-19.813c0-0.992-0.074-1.992-0.222-2.973 c-0.041-0.273,0.146-0.527,0.42-0.568c0.271-0.038,0.527,0.146,0.568,0.42c0.155,1.029,0.233,2.079,0.233,3.121 C70.875,61.538,61.511,70.875,50,70.875z"/></g><g><path fill="#fefdef" d="M54.937,53.663c-0.947,0-1.448,0.338-1.506,1.014c-0.039,0.424-0.097,0.781-0.174,1.071 c-0.077,0.29-0.217,0.628-0.419,1.014c-0.203,0.386-0.536,0.681-1,0.883c-0.463,0.203-1.042,0.304-1.737,0.304 c-2.355,0-3.533-1.245-3.533-3.735v-8.425c0-2.49,1.159-3.735,3.475-3.735c2.143,0,3.272,1.033,3.388,3.097 c0.019,0.677,0.531,1.015,1.534,1.015c0.56,0,0.956-0.111,1.187-0.334c0.232-0.221,0.347-0.641,0.347-1.259 c0-1.544-0.604-2.804-1.81-3.779c-0.87-0.703-1.945-1.143-3.211-1.339v-1.578c0-0.851-0.69-1.542-1.542-1.542 c-0.851,0-1.542,0.69-1.542,1.542v1.592c-1.222,0.212-2.265,0.68-3.115,1.426c-1.187,1.043-1.78,2.674-1.78,4.894v8.425 c0,2.22,0.588,3.852,1.766,4.894c0.849,0.752,1.897,1.223,3.13,1.433v1.544c0,0.851,0.69,1.542,1.542,1.542 c0.851,0,1.542-0.69,1.542-1.542v-1.546c1.255-0.204,2.326-0.655,3.197-1.373c1.216-1.004,1.824-2.306,1.824-3.909 c0-0.617-0.121-1.037-0.362-1.259C55.896,53.774,55.496,53.663,54.937,53.663z"/><path fill="#472b29" d="M49.938,64.125c-1.126,0-2.042-0.916-2.042-2.042V60.95c-1.155-0.258-2.15-0.751-2.961-1.47 C43.651,58.345,43,56.572,43,54.213v-8.426c0-2.358,0.656-4.132,1.95-5.27c0.81-0.71,1.799-1.199,2.945-1.46v-1.183 c0-1.126,0.916-2.042,2.042-2.042s2.042,0.916,2.042,2.042v1.16c1.181,0.24,2.197,0.699,3.025,1.368 C56.329,41.473,57,42.875,57,44.571c0,0.77-0.165,1.3-0.503,1.621c-0.328,0.316-0.829,0.472-1.531,0.472 c-1.734,0-2.019-0.94-2.034-1.501c-0.1-1.776-1.018-2.61-2.888-2.61c-2.03,0-2.976,1.027-2.976,3.234v8.426 c0,2.207,0.964,3.234,3.033,3.234c0.623,0,1.14-0.088,1.535-0.262c0.36-0.157,0.608-0.372,0.759-0.658 c0.184-0.35,0.311-0.656,0.378-0.909c0.069-0.258,0.123-0.591,0.16-0.988c0.047-0.545,0.369-1.467,2.004-1.467 c0.694,0,1.197,0.151,1.539,0.464C56.829,53.951,57,54.483,57,55.255c0,1.752-0.675,3.196-2.006,4.295 c-0.826,0.682-1.839,1.152-3.015,1.402v1.131C51.979,63.209,51.063,64.125,49.938,64.125z M49.938,36.833 c-0.574,0-1.042,0.468-1.042,1.042v2.014l-0.414,0.071c-1.141,0.198-2.106,0.639-2.871,1.31C44.542,42.208,44,43.729,44,45.787 v8.426c0,2.061,0.538,3.581,1.598,4.52c0.765,0.677,1.734,1.119,2.882,1.313l0.416,0.071v1.966c0,0.574,0.468,1.042,1.042,1.042 s1.042-0.468,1.042-1.042v-1.971l0.419-0.068c1.18-0.193,2.175-0.619,2.959-1.266C55.463,57.866,56,56.714,56,55.255 c0-0.656-0.152-0.848-0.199-0.891c-0.082-0.075-0.304-0.201-0.863-0.201c-0.96,0-0.992,0.376-1.008,0.556 c-0.044,0.464-0.105,0.841-0.189,1.157c-0.088,0.329-0.238,0.694-0.46,1.117c-0.257,0.488-0.675,0.861-1.242,1.108 c-0.522,0.229-1.174,0.346-1.937,0.346c-2.639,0-4.033-1.464-4.033-4.234v-8.426c0-2.771,1.375-4.234,3.976-4.234 c2.411,0,3.756,1.234,3.887,3.568c0.006,0.187,0.016,0.543,1.035,0.543c0.576,0,0.779-0.136,0.839-0.193 C55.854,45.425,56,45.233,56,44.571c0-1.398-0.531-2.508-1.624-3.391c-0.786-0.635-1.786-1.05-2.973-1.233l-0.424-0.065v-2.007 C50.979,37.301,50.512,36.833,49.938,36.833z"/></g></svg>