<svg xmlns="http://www.w3.org/2000/svg"  viewBox="0 0 100 100" width="100px" height="100px"><path fill="#ee3e54" d="M12.875,27.958c-1.105,0-2,0.895-2,2s0.895,2,2,2s2-0.895,2-2S13.98,27.958,12.875,27.958z"/><path fill="#f1bc19" d="M76.875,12.958c-0.551,0-1,0.449-1,1s0.449,1,1,1s1-0.449,1-1S77.426,12.958,76.875,12.958z"/><path fill="#fce0a2" d="M49.875,13.958c-20.434,0-37,16.566-37,37s16.566,37,37,37s37-16.566,37-37 S70.309,13.958,49.875,13.958z"/><path fill="#f1bc19" d="M82.875,11.958c-2.211,0-4,1.789-4,4s1.789,4,4,4s4-1.789,4-4S85.086,11.958,82.875,11.958z"/><path fill="#ee3e54" d="M86.875,22.958c-1.105,0-2,0.895-2,2s0.895,2,2,2s2-0.895,2-2S87.98,22.958,86.875,22.958z"/><path fill="#fbcd59" d="M80.875,74.958c-1.105,0-2,0.895-2,2s0.895,2,2,2s2-0.895,2-2S81.98,74.958,80.875,74.958z M14.875,59.958c-2.211,0-4,1.789-4,4c0,2.211,1.789,4,4,4s4-1.789,4-4C18.875,61.747,17.086,59.958,14.875,59.958z"/><path fill="#ee3e54" d="M24.875,85.958c-1.105,0-2,0.895-2,2s0.895,2,2,2s2-0.895,2-2S25.98,85.958,24.875,85.958z"/><path fill="#fff" d="M20.375,37.958c-1.379,0-2.5,1.121-2.5,2.5s1.121,2.5,2.5,2.5s2.5-1.121,2.5-2.5 S21.754,37.958,20.375,37.958z"/><path fill="#f1bc19" d="M20.875,65.958c-0.551,0-1,0.449-1,1s0.449,1,1,1s1-0.449,1-1S21.426,65.958,20.875,65.958z"/><path fill="#fff" d="M79.875,32.958c-0.551,0-1,0.449-1,1s0.449,1,1,1s1-0.449,1-1S80.426,32.958,79.875,32.958z"/><path fill="#c0d078" d="M30.117,73.3c-1.333,0-2.417-1.084-2.417-2.417V52.242c0-1.333,1.084-2.417,2.417-2.417h39.766 c1.333,0,2.417,1.084,2.417,2.417v18.641c0,1.333-1.084,2.417-2.417,2.417H30.117z"/><path fill="#472b29" d="M69.883,50.525c0.947,0,1.717,0.771,1.717,1.717v18.641c0,0.947-0.77,1.717-1.717,1.717H30.117 c-0.947,0-1.717-0.771-1.717-1.717V52.242c0-0.947,0.77-1.717,1.717-1.717H69.883 M69.883,49.125H30.117 c-1.722,0-3.117,1.396-3.117,3.117v18.641C27,72.604,28.396,74,30.117,74h39.766C71.604,74,73,72.604,73,70.883V52.242 C73,50.521,71.604,49.125,69.883,49.125L69.883,49.125z"/><path fill="#88ae45" d="M69,56.5c-1.933,0-3.5-1.567-3.5-3.5c0-0.171,0.027-0.335,0.05-0.5H34.45 c0.024,0.165,0.05,0.329,0.05,0.5c0,1.933-1.567,3.5-3.5,3.5c-0.171,0-0.335-0.027-0.5-0.05V66.55c0.165-0.023,0.329-0.05,0.5-0.05 c1.933,0,3.5,1.567,3.5,3.5c0,0.171-0.027,0.335-0.05,0.5H65.55c-0.024-0.165-0.05-0.329-0.05-0.5c0-1.933,1.567-3.5,3.5-3.5 c0.171,0,0.335,0.027,0.5,0.05V56.45C69.335,56.473,69.171,56.5,69,56.5z"/><g><circle cx="50.5" cy="61.5" r="6" fill="#c0d078"/></g><g><circle cx="39" cy="61.125" r="2.5" fill="#c0d078"/><path fill="#472b29" d="M39,63.875c-1.517,0-2.75-1.234-2.75-2.75s1.233-2.75,2.75-2.75s2.75,1.234,2.75,2.75 S40.517,63.875,39,63.875z M39,58.875c-1.241,0-2.25,1.009-2.25,2.25s1.009,2.25,2.25,2.25s2.25-1.009,2.25-2.25 S40.241,58.875,39,58.875z"/></g><g><circle cx="62" cy="61.125" r="2.5" fill="#c0d078"/><path fill="#472b29" d="M62,63.875c-1.517,0-2.75-1.234-2.75-2.75s1.233-2.75,2.75-2.75s2.75,1.234,2.75,2.75 S63.517,63.875,62,63.875z M62,58.875c-1.241,0-2.25,1.009-2.25,2.25s1.009,2.25,2.25,2.25s2.25-1.009,2.25-2.25 S63.241,58.875,62,58.875z"/></g><g><path fill="#472b29" d="M57.625,53.125H45c-0.276,0-0.5-0.224-0.5-0.5s0.224-0.5,0.5-0.5h12.625c0.276,0,0.5,0.224,0.5,0.5 S57.901,53.125,57.625,53.125z"/></g><g><path fill="#472b29" d="M65.55,71.125h-21.8c-0.276,0-0.5-0.224-0.5-0.5s0.224-0.5,0.5-0.5H65c0-2.206,1.794-4,4-4v-9 c-2.206,0-4-1.794-4-4h-3.875c-0.276,0-0.5-0.224-0.5-0.5s0.224-0.5,0.5-0.5h4.425c0.145,0,0.283,0.063,0.377,0.172 c0.095,0.109,0.138,0.255,0.118,0.398C66.02,52.874,66,52.997,66,53.125c0,1.654,1.346,3,3,3c0.128,0,0.251-0.019,0.374-0.037 c0.146-0.021,0.317,0.018,0.426,0.113c0.11,0.095,0.2,0.229,0.2,0.374v10.101c0,0.145-0.063,0.283-0.172,0.378 c-0.109,0.095-0.256,0.138-0.398,0.117c-0.179-0.026-0.302-0.045-0.43-0.045c-1.654,0-3,1.346-3,3c0,0.128,0.02,0.251,0.037,0.374 c0.021,0.144-0.018,0.317-0.113,0.426C65.83,71.035,65.695,71.125,65.55,71.125z"/></g><g><path fill="#472b29" d="M40.625,71.125H34.45c-0.145,0-0.283-0.063-0.377-0.172c-0.095-0.109-0.138-0.255-0.118-0.398 C33.98,70.376,34,70.253,34,70.125c0-1.654-1.346-3-3-3c-0.128,0-0.251,0.019-0.374,0.037c-0.146,0.021-0.317-0.018-0.426-0.113 c-0.11-0.095-0.2-0.229-0.2-0.374V56.575c0-0.145,0.063-0.283,0.172-0.378c0.109-0.095,0.256-0.138,0.398-0.117 c0.179,0.026,0.302,0.045,0.43,0.045c1.654,0,3-1.346,3-3c0-0.128-0.02-0.251-0.037-0.374c-0.021-0.144,0.018-0.317,0.113-0.426 c0.095-0.11,0.229-0.2,0.374-0.2h2.05c0.276,0,0.5,0.224,0.5,0.5s-0.224,0.5-0.5,0.5H35c0,2.206-1.794,4-4,4v9c2.206,0,4,1.794,4,4 h5.625c0.276,0,0.5,0.224,0.5,0.5S40.901,71.125,40.625,71.125z"/></g><g><path fill="#472b29" d="M44.583,62.875c-0.12,0-0.226-0.086-0.246-0.209c-0.057-0.341-0.086-0.692-0.086-1.042 c0-1.596,0.601-3.115,1.693-4.277c0.094-0.101,0.253-0.105,0.353-0.011c0.101,0.094,0.106,0.253,0.011,0.353 c-1.004,1.069-1.557,2.467-1.557,3.935c0,0.322,0.027,0.645,0.08,0.959c0.023,0.136-0.069,0.265-0.205,0.288 C44.61,62.874,44.597,62.875,44.583,62.875z"/></g><g><path fill="#472b29" d="M50.5,67.875c-2.498,0-4.751-1.482-5.741-3.776c-0.198-0.459-0.34-0.941-0.422-1.433 c-0.023-0.136,0.069-0.265,0.205-0.288c0.136-0.022,0.265,0.069,0.288,0.205c0.076,0.452,0.207,0.895,0.388,1.318 c0.911,2.11,2.984,3.474,5.282,3.474c1.359,0,2.678-0.483,3.714-1.36c0.106-0.089,0.265-0.076,0.353,0.029 c0.089,0.105,0.076,0.263-0.029,0.352C53.411,67.35,51.977,67.875,50.5,67.875z"/></g><g><path fill="#472b29" d="M55.768,64.75c-0.041,0-0.082-0.01-0.12-0.031c-0.121-0.066-0.166-0.218-0.099-0.339 c0.459-0.84,0.702-1.792,0.702-2.755c0-3.171-2.58-5.75-5.75-5.75c-0.791,0-1.557,0.157-2.276,0.468 c-0.126,0.055-0.274-0.004-0.329-0.13c-0.055-0.127,0.003-0.274,0.13-0.329c0.782-0.338,1.615-0.509,2.474-0.509 c3.446,0,6.25,2.804,6.25,6.25c0,1.046-0.264,2.082-0.763,2.995C55.941,64.703,55.856,64.75,55.768,64.75z"/></g><g><path fill="#00a5a5" d="M68,26H58c-1.104,0-2,0.896-2,2s0.896,2,2,2h5.172l-8.451,8.451l-9.646-6.139 c-0.679-0.432-1.551-0.415-2.212,0.043l-13,9c-0.908,0.629-1.135,1.875-0.506,2.783C29.744,44.699,30.368,45,31.002,45 c0.393,0,0.789-0.115,1.136-0.355L44.046,36.4l9.88,6.287c0.791,0.503,1.826,0.39,2.488-0.273L66,32.828V38c0,1.104,0.896,2,2,2 s2-0.896,2-2V28C70,26.896,69.104,26,68,26z"/><path fill="#472b29" d="M31.002,45.5c-0.821,0-1.59-0.402-2.057-1.076c-0.785-1.134-0.501-2.694,0.632-3.479l13-9 c0.829-0.574,1.914-0.595,2.765-0.054l9.308,5.923l7.314-7.314H58c-1.378,0-2.5-1.122-2.5-2.5s1.122-2.5,2.5-2.5h10 c1.378,0,2.5,1.122,2.5,2.5v10c0,1.378-1.122,2.5-2.5,2.5s-2.5-1.122-2.5-2.5v-3.965l-8.732,8.732 c-0.821,0.822-2.129,0.966-3.11,0.342L44.058,37l-11.635,8.055C32.002,45.346,31.511,45.5,31.002,45.5z M44,32.499 c-0.299,0-0.597,0.089-0.854,0.267l-13,9c-0.68,0.471-0.851,1.407-0.38,2.088c0.454,0.654,1.428,0.835,2.087,0.379l11.908-8.244 c0.166-0.115,0.383-0.119,0.553-0.011l9.88,6.287c0.588,0.374,1.374,0.288,1.865-0.205l9.586-9.586 c0.144-0.143,0.358-0.186,0.545-0.108s0.309,0.26,0.309,0.462V38c0,0.827,0.673,1.5,1.5,1.5s1.5-0.673,1.5-1.5V28 c0-0.827-0.673-1.5-1.5-1.5H58c-0.827,0-1.5,0.673-1.5,1.5s0.673,1.5,1.5,1.5h5.172c0.202,0,0.385,0.122,0.462,0.309 c0.078,0.187,0.035,0.402-0.108,0.545l-8.452,8.451c-0.166,0.166-0.425,0.194-0.622,0.068l-9.646-6.139 C44.559,32.577,44.279,32.499,44,32.499z"/></g></svg>